<svg id="visual" viewBox="0 0 900 600" width="900" height="600" xmlns="http://www.w3.org/2000/svg" xmlns:xlink="http://www.w3.org/1999/xlink" version="1.1"><rect x="0" y="0" width="900" height="600" fill="#161823"></rect><defs><linearGradient id="grad1_0" x1="33.3%" y1="0%" x2="100%" y2="100%"><stop offset="20%" stop-color="#75a1d0" stop-opacity="1"></stop><stop offset="80%" stop-color="#75a1d0" stop-opacity="1"></stop></linearGradient></defs><defs><linearGradient id="grad1_1" x1="33.3%" y1="0%" x2="100%" y2="100%"><stop offset="20%" stop-color="#75a1d0" stop-opacity="1"></stop><stop offset="80%" stop-color="#576e91" stop-opacity="1"></stop></linearGradient></defs><defs><linearGradient id="grad1_2" x1="33.3%" y1="0%" x2="100%" y2="100%"><stop offset="20%" stop-color="#374057" stop-opacity="1"></stop><stop offset="80%" stop-color="#576e91" stop-opacity="1"></stop></linearGradient></defs><defs><linearGradient id="grad1_3" x1="33.3%" y1="0%" x2="100%" y2="100%"><stop offset="20%" stop-color="#374057" stop-opacity="1"></stop><stop offset="80%" stop-color="#161823" stop-opacity="1"></stop></linearGradient></defs><defs><linearGradient id="grad2_0" x1="0%" y1="0%" x2="66.7%" y2="100%"><stop offset="20%" stop-color="#75a1d0" stop-opacity="1"></stop><stop offset="80%" stop-color="#75a1d0" stop-opacity="1"></stop></linearGradient></defs><defs><linearGradient id="grad2_1" x1="0%" y1="0%" x2="66.7%" y2="100%"><stop offset="20%" stop-color="#576e91" stop-opacity="1"></stop><stop offset="80%" stop-color="#75a1d0" stop-opacity="1"></stop></linearGradient></defs><defs><linearGradient id="grad2_2" x1="0%" y1="0%" x2="66.7%" y2="100%"><stop offset="20%" stop-color="#576e91" stop-opacity="1"></stop><stop offset="80%" stop-color="#374057" stop-opacity="1"></stop></linearGradient></defs><defs><linearGradient id="grad2_3" x1="0%" y1="0%" x2="66.7%" y2="100%"><stop offset="20%" stop-color="#161823" stop-opacity="1"></stop><stop offset="80%" stop-color="#374057" stop-opacity="1"></stop></linearGradient></defs><g transform="translate(900, 0)"><path d="M0 378.6C-70.5 371.1 -140.9 363.7 -189.3 327.9C-237.7 292 -264 227.9 -291.9 168.5C-319.7 109.1 -349.2 54.6 -378.6 0L0 0Z" fill="#262b3c"></path><path d="M0 283.9C-52.8 278.3 -105.7 272.8 -142 245.9C-178.3 219 -198 170.9 -218.9 126.4C-239.8 81.8 -261.9 40.9 -283.9 0L0 0Z" fill="#475774"></path><path d="M0 189.3C-35.2 185.6 -70.5 181.8 -94.6 163.9C-118.8 146 -132 113.9 -145.9 84.3C-159.9 54.6 -174.6 27.3 -189.3 0L0 0Z" fill="#6687b0"></path><path d="M0 94.6C-17.6 92.8 -35.2 90.9 -47.3 82C-59.4 73 -66 57 -73 42.1C-79.9 27.3 -87.3 13.6 -94.6 0L0 0Z" fill="#75a1d0"></path></g><g transform="translate(0, 600)"><path d="M0 -378.6C68.4 -369.9 136.8 -361.3 189.3 -327.9C241.8 -294.4 278.5 -236.3 307.4 -177.5C336.3 -118.7 357.5 -59.4 378.6 0L0 0Z" fill="#262b3c"></path><path d="M0 -283.9C51.3 -277.4 102.6 -271 142 -245.9C181.4 -220.8 208.9 -177.2 230.6 -133.1C252.3 -89 268.1 -44.5 283.9 0L0 0Z" fill="#475774"></path><path d="M0 -189.3C34.2 -185 68.4 -180.6 94.6 -163.9C120.9 -147.2 139.3 -118.1 153.7 -88.8C168.2 -59.4 178.7 -29.7 189.3 0L0 0Z" fill="#6687b0"></path><path d="M0 -94.6C17.1 -92.5 34.2 -90.3 47.3 -82C60.5 -73.6 69.6 -59.1 76.9 -44.4C84.1 -29.7 89.4 -14.8 94.6 0L0 0Z" fill="#75a1d0"></path></g></svg>